<?xml version="1.0" encoding="UTF-8"?>
<svg width="48px" height="48px" viewBox="0 0 48 48" version="1.1" xmlns="http://www.w3.org/2000/svg" xmlns:xlink="http://www.w3.org/1999/xlink">
    <title>Group 14</title>
    <g id="Page-1" stroke="none" stroke-width="1" fill="none" fill-rule="evenodd">
        <g id="Sphoorthi-Kutumbam" transform="translate(-792.000000, -4031.000000)">
            <g id="Group-14" transform="translate(792.000000, 4031.000000)">
                <rect id="Rectangle-Copy-13" stroke="#5A5A5A" x="0.5" y="0.5" width="47" height="47" rx="23.5"></rect>
                <g id="youtube-brands" transform="translate(9.000000, 13.000000)" fill="#5A5A5A" fill-rule="nonzero">
                    <path d="M30.9307866,3.50787007 C30.5674646,2.12709469 29.4969922,1.0396392 28.1378174,0.670595603 C25.6742153,0 15.7954547,0 15.7954547,0 C15.7954547,0 5.91675183,0 3.45309196,0.670595603 C2.09391711,1.03969759 1.02344472,2.12709469 0.660122712,3.50787007 C0,6.01060572 0,11.2323304 0,11.2323304 C0,11.2323304 0,16.4540551 0.660122712,18.9567907 C1.02344472,20.3375661 2.09391711,21.3797158 3.45309196,21.7487594 C5.91675183,22.419355 15.7954547,22.419355 15.7954547,22.419355 C15.7954547,22.419355 25.6741575,22.419355 28.1378174,21.7487594 C29.4969922,21.3797158 30.5674646,20.3375661 30.9307866,18.9567907 C31.5909093,16.4540551 31.5909093,11.2323304 31.5909093,11.2323304 C31.5909093,11.2323304 31.5909093,6.01060572 30.9307866,3.50787007 Z M12.5645439,15.973265 L12.5645439,6.4913958 L20.8212259,11.2324472 L12.5645439,15.973265 Z" id="Shape"></path>
                </g>
            </g>
        </g>
    </g>
</svg>